<?xml version="1.0" encoding="UTF-8" standalone="no"?>
<!DOCTYPE svg PUBLIC "-//W3C//DTD SVG 1.1//EN"
 "http://www.w3.org/Graphics/SVG/1.1/DTD/svg11.dtd">
<!-- Generated by graphviz version 2.30.1 (20130214.1330)
 -->
<!-- Title: Dependencies Pages: 1 -->
<svg width="786pt" height="132pt"
 viewBox="0.00 0.00 786.00 132.00" xmlns="http://www.w3.org/2000/svg" xmlns:xlink="http://www.w3.org/1999/xlink">
<g id="graph0" class="graph" transform="scale(1 1) rotate(0) translate(4 128)">
<title>Dependencies</title>
<polygon fill="white" stroke="white" points="-4,5 -4,-128 783,-128 783,5 -4,5"/>
<!-- tests -->
<g id="node1" class="node"><title>tests</title>
<ellipse fill="none" stroke="black" cx="77" cy="-93" rx="77.1494" ry="26.7407"/>
<text text-anchor="middle" x="77" y="-96.8" font-family="Times New Roman,serif" font-size="14.00">tests</text>
<text text-anchor="middle" x="77" y="-81.8" font-family="Times New Roman,serif" font-size="14.00">(incl manage.py)</text>
</g>
<!-- supertools -->
<g id="node3" class="node"><title>supertools</title>
<ellipse fill="none" stroke="black" cx="255" cy="-98" rx="65.1077" ry="26.7407"/>
<text text-anchor="middle" x="255" y="-101.8" font-family="Times New Roman,serif" font-size="14.00">supertools</text>
<text text-anchor="middle" x="255" y="-86.8" font-family="Times New Roman,serif" font-size="14.00">(incl cron.py)</text>
</g>
<!-- tests&#45;&gt;supertools -->
<g id="edge1" class="edge"><title>tests&#45;&gt;supertools</title>
<path fill="none" stroke="black" d="M153.917,-95.1567C162.449,-95.3991 171.136,-95.6459 179.648,-95.8877"/>
<polygon fill="black" stroke="black" points="179.827,-99.3941 189.923,-96.1796 180.026,-92.397 179.827,-99.3941"/>
</g>
<!-- frontend -->
<g id="node6" class="node"><title>frontend</title>
<ellipse fill="none" stroke="black" cx="255" cy="-26" rx="62.4516" ry="26.7407"/>
<text text-anchor="middle" x="255" y="-29.8" font-family="Times New Roman,serif" font-size="14.00">frontend</text>
<text text-anchor="middle" x="255" y="-14.8" font-family="Times New Roman,serif" font-size="14.00">(incl app.py)</text>
</g>
<!-- tests&#45;&gt;frontend -->
<g id="edge2" class="edge"><title>tests&#45;&gt;frontend</title>
<path fill="none" stroke="black" d="M129.38,-73.4407C151.034,-65.1975 176.288,-55.5835 198.379,-47.1739"/>
<polygon fill="black" stroke="black" points="199.856,-50.3567 207.957,-43.5279 197.366,-43.8147 199.856,-50.3567"/>
</g>
<!-- server_conf -->
<g id="node2" class="node"><title>server_conf</title>
<ellipse fill="none" stroke="black" cx="77" cy="-26" rx="61.99" ry="18"/>
<text text-anchor="middle" x="77" y="-22.3" font-family="Times New Roman,serif" font-size="14.00">Server Config</text>
</g>
<!-- server_conf&#45;&gt;frontend -->
<g id="edge3" class="edge"><title>server_conf&#45;&gt;frontend</title>
<path fill="none" stroke="black" d="M139.062,-26C153.043,-26 168.028,-26 182.408,-26"/>
<polygon fill="black" stroke="black" points="182.748,-29.5001 192.748,-26 182.748,-22.5001 182.748,-29.5001"/>
</g>
<!-- backend -->
<g id="node5" class="node"><title>backend</title>
<ellipse fill="none" stroke="black" cx="398" cy="-44" rx="41.6928" ry="18"/>
<text text-anchor="middle" x="398" y="-40.3" font-family="Times New Roman,serif" font-size="14.00">backend</text>
</g>
<!-- supertools&#45;&gt;backend -->
<g id="edge4" class="edge"><title>supertools&#45;&gt;backend</title>
<path fill="none" stroke="black" d="M302.951,-80.0188C320.363,-73.3505 339.939,-65.853 356.706,-59.4319"/>
<polygon fill="black" stroke="black" points="358.128,-62.6351 366.215,-55.7901 355.625,-56.0981 358.128,-62.6351"/>
</g>
<!-- analytics -->
<g id="node4" class="node"><title>analytics</title>
<ellipse fill="none" stroke="black" cx="398" cy="-98" rx="42.4939" ry="18"/>
<text text-anchor="middle" x="398" y="-94.3" font-family="Times New Roman,serif" font-size="14.00">analytics</text>
</g>
<!-- supertools&#45;&gt;analytics -->
<g id="edge5" class="edge"><title>supertools&#45;&gt;analytics</title>
<path fill="none" stroke="black" d="M320.311,-98C328.686,-98 337.179,-98 345.311,-98"/>
<polygon fill="black" stroke="black" points="345.384,-101.5 355.384,-98 345.384,-94.5001 345.384,-101.5"/>
</g>
<!-- database -->
<g id="node7" class="node"><title>database</title>
<ellipse fill="none" stroke="black" cx="518" cy="-98" rx="42.4939" ry="18"/>
<text text-anchor="middle" x="518" y="-94.3" font-family="Times New Roman,serif" font-size="14.00">database</text>
</g>
<!-- analytics&#45;&gt;database -->
<g id="edge7" class="edge"><title>analytics&#45;&gt;database</title>
<path fill="none" stroke="black" d="M440.271,-98C448.398,-98 457.019,-98 465.436,-98"/>
<polygon fill="black" stroke="black" points="465.553,-101.5 475.553,-98 465.553,-94.5001 465.553,-101.5"/>
</g>
<!-- backend&#45;&gt;database -->
<g id="edge8" class="edge"><title>backend&#45;&gt;database</title>
<path fill="none" stroke="black" d="M427.264,-56.9343C442.767,-64.0289 462.198,-72.9211 479.011,-80.615"/>
<polygon fill="black" stroke="black" points="478.008,-84.0053 488.558,-84.984 480.921,-77.6402 478.008,-84.0053"/>
</g>
<!-- parsers -->
<g id="node8" class="node"><title>parsers</title>
<ellipse fill="none" stroke="black" cx="518" cy="-44" rx="37.0935" ry="18"/>
<text text-anchor="middle" x="518" y="-40.3" font-family="Times New Roman,serif" font-size="14.00">parsers</text>
</g>
<!-- backend&#45;&gt;parsers -->
<g id="edge9" class="edge"><title>backend&#45;&gt;parsers</title>
<path fill="none" stroke="black" d="M439.609,-44C449.609,-44 460.392,-44 470.641,-44"/>
<polygon fill="black" stroke="black" points="470.663,-47.5001 480.663,-44 470.663,-40.5001 470.663,-47.5001"/>
</g>
<!-- frontend&#45;&gt;backend -->
<g id="edge6" class="edge"><title>frontend&#45;&gt;backend</title>
<path fill="none" stroke="black" d="M314.98,-33.5293C325.96,-34.931 337.323,-36.3817 347.965,-37.7402"/>
<polygon fill="black" stroke="black" points="347.548,-41.2153 357.911,-39.0099 348.435,-34.2717 347.548,-41.2153"/>
</g>
<!-- utils -->
<g id="node9" class="node"><title>utils</title>
<ellipse fill="none" stroke="black" cx="623" cy="-71" rx="27" ry="18"/>
<text text-anchor="middle" x="623" y="-67.3" font-family="Times New Roman,serif" font-size="14.00">utils</text>
</g>
<!-- database&#45;&gt;utils -->
<g id="edge10" class="edge"><title>database&#45;&gt;utils</title>
<path fill="none" stroke="black" d="M554.447,-88.7081C565.207,-85.8875 577.006,-82.7946 587.69,-79.994"/>
<polygon fill="black" stroke="black" points="588.735,-83.3382 597.521,-77.4168 586.96,-76.567 588.735,-83.3382"/>
</g>
<!-- parsers&#45;&gt;utils -->
<g id="edge11" class="edge"><title>parsers&#45;&gt;utils</title>
<path fill="none" stroke="black" d="M551.025,-52.395C562.627,-55.4361 575.774,-58.8826 587.574,-61.9757"/>
<polygon fill="black" stroke="black" points="586.962,-65.4336 597.523,-64.5837 588.737,-58.6624 586.962,-65.4336"/>
</g>
<!-- constants -->
<g id="node10" class="node"><title>constants</title>
<ellipse fill="none" stroke="black" cx="732" cy="-71" rx="45.4919" ry="18"/>
<text text-anchor="middle" x="732" y="-67.3" font-family="Times New Roman,serif" font-size="14.00">constants</text>
</g>
<!-- utils&#45;&gt;constants -->
<g id="edge12" class="edge"><title>utils&#45;&gt;constants</title>
<path fill="none" stroke="black" d="M650.175,-71C658.087,-71 667.088,-71 676.141,-71"/>
<polygon fill="black" stroke="black" points="676.329,-74.5001 686.329,-71 676.329,-67.5001 676.329,-74.5001"/>
</g>
</g>
</svg>
